# xmcd
#
# Track frame offsets: 
#        150
#        33652
#        50320
#        64870
#        85310
#        103942
#        119360
#        131175
#        153830
#        163385
#        182580
#        205020
#        231270
#
# Disc length: 3379 seconds
#
# Revision: 0
# Processed by: cddbd v1.5.1PL0 Copyright (c) Steve Scherf et al.
# Submitted via: ExactAudioCopy v0.95a5
#
DISCID=b70d310d
DTITLE=The Air Mobility Command Band of the Golden West - Commanding V
DTITLE=iew
DYEAR=1993
DGENRE=Brass
TTITLE0=Nobody's Human
TTITLE1=Beauty and the Beast
TTITLE2=Jeepers Creepers
TTITLE3=The Smoocher
TTITLE4=Thoughts
TTITLE5=Call Me Irresponsible
TTITLE6=Greensleeves
TTITLE7=Margie
TTITLE8=Hotcha Cornia
TTITLE9=Banana Boat Blues
TTITLE10=Frogs Are Human Too
TTITLE11=Unlike You
TTITLE12=In Flight Lunch
EXTD=
EXTT0=
EXTT1=
EXTT2=
EXTT3=
EXTT4=
EXTT5=
EXTT6=
EXTT7=
EXTT8=
EXTT9=
EXTT10=
EXTT11=
EXTT12=
PLAYORDER=
